<svg xmlns="http://www.w3.org/2000/svg" width="29" height="29" viewBox="0 0 29 29" fill="none">
    <g clip-path="url(#clip0_119_271)">
        <path d="M2.25 21.9375C2.97461 21.9375 3.5625 21.35 3.5625 20.625V8.375C3.5625 7.64997 2.9746 7.0625 2.25 7.0625C1.5254 7.0625 0.9375 7.64997 0.9375 8.375V20.625C0.9375 21.35 1.5254 21.9375 2.25 21.9375ZM8.46216 25.358V3.64197C8.46216 2.91693 7.87426 2.32947 7.14966 2.32947C6.42505 2.32947 5.83716 2.91693 5.83716 3.64197V25.358C5.83716 26.0831 6.42505 26.6705 7.14966 26.6705C7.87426 26.6705 8.46216 26.0831 8.46216 25.358ZM13.3627 20.625V8.375C13.3627 7.64997 12.7748 7.0625 12.0502 7.0625C11.3256 7.0625 10.7377 7.64997 10.7377 8.375V20.625C10.7377 21.35 11.3256 21.9375 12.0502 21.9375C12.7748 21.9375 13.3627 21.35 13.3627 20.625ZM18.2623 25.358V3.64197C18.2623 2.91693 17.6744 2.32947 16.9498 2.32947C16.2252 2.32947 15.6373 2.91693 15.6373 3.64197V25.358C15.6373 26.0831 16.2252 26.6705 16.9498 26.6705C17.6744 26.6705 18.2623 26.0831 18.2623 25.358ZM23.1628 20.625V8.375C23.1628 7.64997 22.5749 7.0625 21.8503 7.0625C21.1257 7.0625 20.5378 7.64997 20.5378 8.375V20.625C20.5378 21.35 21.1257 21.9375 21.8503 21.9375C22.5749 21.9375 23.1628 21.35 23.1628 20.625ZM26.75 2.32947C26.0254 2.32947 25.4375 2.91693 25.4375 3.64197V25.358C25.4375 26.0831 26.0254 26.6705 26.75 26.6705C27.4746 26.6705 28.0625 26.0831 28.0625 25.358V3.64197C28.0625 2.91693 27.4746 2.32947 26.75 2.32947Z" fill="white"/>
    </g>
    <defs>
        <clipPath id="clip0_119_271">
            <rect width="28" height="28" fill="white" transform="translate(0.5 0.5)"/>
        </clipPath>
    </defs>
</svg>