<svg xmlns="http://www.w3.org/2000/svg" width="29" height="29" viewBox="0 0 29 29" fill="none">
    <path d="M21.15 27.6H7.85C7.09413 27.6 6.36922 27.2997 5.83475 26.7653C5.30027 26.2308 5 25.5059 5 24.75V3.85C5 3.09413 5.30027 2.36922 5.83475 1.83475C6.36922 1.30027 7.09413 1 7.85 1H18.3C18.5492 1.00105 18.7881 1.09999 18.965 1.2755L23.715 6.0255C23.8921 6.20607 23.9939 6.44717 24 6.7V24.75C24 25.5059 23.6997 26.2308 23.1653 26.7653C22.6308 27.2997 21.9059 27.6 21.15 27.6ZM7.85 2.9C7.59804 2.9 7.35641 3.00009 7.17825 3.17825C7.00009 3.35641 6.9 3.59804 6.9 3.85V24.75C6.9 25.002 7.00009 25.2436 7.17825 25.4218C7.35641 25.5999 7.59804 25.7 7.85 25.7H21.15C21.402 25.7 21.6436 25.5999 21.8218 25.4218C21.9999 25.2436 22.1 25.002 22.1 24.75V7.0895L17.9105 2.9H7.85ZM19.25 8.6H9.75V10.5H19.25V8.6ZM19.25 13.35H9.75V15.25H19.25V13.35ZM19.25 18.1H9.75V20H19.25V18.1Z" fill="white"/>
</svg>