<svg width="28" height="28" viewBox="0 0 28 28" fill="none" xmlns="http://www.w3.org/2000/svg">
<g id="Telegram">
<path id="telegram social media network chat" d="M25.0163 3.75375C24.745 3.52587 24.4168 3.37615 24.0668 3.32065C23.7169 3.26516 23.3585 3.30599 23.03 3.43875L2.98377 11.4625C2.69155 11.5839 2.44185 11.7891 2.26618 12.0523C2.09052 12.3155 1.99677 12.6248 1.99677 12.9413C1.99677 13.2577 2.09052 13.567 2.26618 13.8302C2.44185 14.0934 2.69155 14.2986 2.98377 14.42L4.27877 14.9538C4.49229 15.0441 4.73292 15.046 4.94784 14.959C5.16275 14.8721 5.33437 14.7034 5.42502 14.49C5.46949 14.3837 5.49253 14.2697 5.49284 14.1546C5.49315 14.0394 5.47071 13.9253 5.42681 13.8188C5.38291 13.7123 5.31842 13.6155 5.23702 13.534C5.15563 13.4525 5.05895 13.3878 4.95252 13.3438L3.99002 12.95L23.6863 5.075C23.7165 5.05644 23.7514 5.04661 23.7869 5.04661C23.8224 5.04661 23.8572 5.05644 23.8875 5.075C23.9161 5.09926 23.9376 5.1307 23.9499 5.16609C23.9622 5.20148 23.9649 5.23952 23.9575 5.27625L20.3613 22.0588C20.3495 22.1185 20.3223 22.1742 20.2824 22.2202C20.2425 22.2663 20.1913 22.3011 20.1338 22.3213C20.0774 22.3436 20.016 22.3506 19.956 22.3413C19.896 22.3321 19.8396 22.3071 19.7925 22.2688L12.7925 16.8088L19.6438 9.88751C19.7901 9.73566 19.8767 9.53606 19.8876 9.32545C19.8985 9.11483 19.8329 8.90737 19.703 8.74125C19.5731 8.57512 19.3876 8.4615 19.1805 8.42131C18.9735 8.38112 18.7589 8.41706 18.5763 8.5225L8.53127 14.4725C8.4197 14.5229 8.31996 14.5962 8.23848 14.6876C8.15701 14.779 8.09562 14.8865 8.05829 15.0031C8.02096 15.1197 8.00852 15.2428 8.02176 15.3645C8.035 15.4862 8.07364 15.6038 8.13518 15.7096C8.19672 15.8155 8.27978 15.9072 8.37901 15.979C8.47823 16.0507 8.5914 16.1008 8.7112 16.1261C8.831 16.1513 8.95477 16.1511 9.0745 16.1255C9.19422 16.0999 9.30725 16.0495 9.40627 15.9775L13.6325 13.4838L11.5763 15.575C11.3882 15.7517 11.2415 15.9679 11.1467 16.208C11.052 16.4481 11.0115 16.7062 11.0282 16.9638C11.045 17.2213 11.1185 17.472 11.2435 17.6979C11.3685 17.9237 11.5419 18.1191 11.7513 18.27L18.7513 23.6513C19.1197 23.9356 19.5721 24.0895 20.0375 24.0888C20.2853 24.087 20.531 24.0426 20.7638 23.9575C21.098 23.8375 21.3959 23.6337 21.6287 23.3656C21.8616 23.0974 22.0217 22.774 22.0938 22.4263L25.6638 5.66125C25.7395 5.31448 25.7193 4.95361 25.6052 4.61749C25.4911 4.28137 25.2875 3.98274 25.0163 3.75375Z" fill="#FFF"/>
</g>
</svg>
