<svg xmlns="http://www.w3.org/2000/svg" width="19" height="20" viewBox="0 0 19 20" fill="none">
    <path d="M15.8573 9.58022L12.8885 6.61147C12.7765 6.50331 12.6266 6.44346 12.4709 6.44482C12.3152 6.44617 12.1663 6.50861 12.0562 6.6187C11.9461 6.72879 11.8837 6.87771 11.8823 7.03338C11.881 7.18906 11.9408 7.33905 12.049 7.45103L14.0042 9.40625H7.125C6.96753 9.40625 6.81651 9.4688 6.70516 9.58015C6.59381 9.6915 6.53125 9.84253 6.53125 10C6.53125 10.1575 6.59381 10.3085 6.70516 10.4198C6.81651 10.5312 6.96753 10.5937 7.125 10.5937H14.0042L12.049 12.549C11.9923 12.6037 11.947 12.6693 11.9159 12.7417C11.8848 12.8141 11.8684 12.892 11.8677 12.9709C11.867 13.0497 11.8821 13.1279 11.9119 13.2009C11.9418 13.2738 11.9859 13.3401 12.0416 13.3959C12.0974 13.4516 12.1637 13.4957 12.2366 13.5256C12.3096 13.5554 12.3878 13.5705 12.4666 13.5698C12.5455 13.5691 12.6234 13.5527 12.6958 13.5216C12.7682 13.4905 12.8338 13.4452 12.8885 13.3885L15.8573 10.4198C15.9686 10.3084 16.0311 10.1574 16.0311 10C16.0311 9.84256 15.9686 9.69156 15.8573 9.58022Z" fill="white"/>
    <path d="M5.9375 15.3438H4.15625V4.65625H5.9375C6.09497 4.65625 6.24599 4.59369 6.35734 4.48234C6.46869 4.37099 6.53125 4.21997 6.53125 4.0625C6.53125 3.90503 6.46869 3.75401 6.35734 3.64266C6.24599 3.53131 6.09497 3.46875 5.9375 3.46875H3.5625C3.40503 3.46875 3.25401 3.53131 3.14266 3.64266C3.03131 3.75401 2.96875 3.90503 2.96875 4.0625V15.9375C2.96875 16.095 3.03131 16.246 3.14266 16.3573C3.25401 16.4687 3.40503 16.5312 3.5625 16.5312H5.9375C6.09497 16.5312 6.24599 16.4687 6.35734 16.3573C6.46869 16.246 6.53125 16.095 6.53125 15.9375C6.53125 15.78 6.46869 15.629 6.35734 15.5177C6.24599 15.4063 6.09497 15.3438 5.9375 15.3438Z" fill="white"/>
</svg>