<svg width="45" height="45" viewBox="0 0 45 45" fill="none" xmlns="http://www.w3.org/2000/svg">
    <rect width="45" height="45" rx="4" fill="#0D0D0D" fill-opacity="0.26"/>
    <path d="M23.8725 14.6693L23.8719 14.6699L23.8316 14.714L23.8311 14.7146C23.7364 14.8189 23.6455 14.9241 23.5581 15.0301C23.5196 14.9622 23.4798 14.8953 23.4386 14.8294C22.8099 13.7937 21.9331 13.0189 20.8143 12.5083C19.713 12.0003 18.448 11.75 17.0252 11.75C15.8434 11.75 14.7631 11.9252 13.7873 12.2796C12.8292 12.6196 11.9989 13.0875 11.3001 13.6856C10.6164 14.2686 10.0868 14.9254 9.71596 15.6567C9.34572 16.3869 9.15746 17.1303 9.15746 17.8845V18.1345H9.40746H12.6849H12.9349V17.8845C12.9349 17.3892 13.0873 16.9252 13.4007 16.487C13.7272 16.047 14.1769 15.6859 14.7585 15.4071C15.3452 15.1316 16.0337 14.9899 16.8304 14.9899C17.6872 14.9899 18.3885 15.1442 18.9456 15.439C19.5037 15.7344 19.9144 16.1507 20.1855 16.691L20.1854 16.691L20.1883 16.6964C20.4176 17.1267 20.5574 17.625 20.6031 18.1958V19.9515H17.6276C16.299 19.9515 15.09 20.0943 14.0026 20.3828C12.9153 20.6712 11.9769 21.0997 11.1922 21.6721C10.4038 22.235 9.79797 22.9469 9.37807 23.8055C8.95675 24.6548 8.75 25.6316 8.75 26.7295C8.75 27.875 9.02645 28.9187 9.58226 29.8546L9.58223 29.8546L9.5843 29.858C10.1519 30.7802 10.9411 31.5146 11.9453 32.0612L11.9464 32.0618C12.9687 32.6116 14.1504 32.8824 15.484 32.8824C16.5531 32.8824 17.5215 32.6931 18.3847 32.3091L18.3862 32.3084C19.2468 31.9184 19.9908 31.4319 20.6152 30.8472L20.6154 30.8471C20.7963 30.6773 20.967 30.5052 21.1275 30.3307L21.1281 30.3301L21.1684 30.286L21.1689 30.2854C21.2636 30.1811 21.3545 30.0759 21.4419 29.9699C21.4804 30.0378 21.5202 30.1047 21.5615 30.1706C22.1901 31.2063 23.0669 31.9811 24.1857 32.4917C25.287 32.9997 26.552 33.25 27.9748 33.25C29.1566 33.25 30.2369 33.0748 31.2127 32.7204C32.1708 32.3804 33.0012 31.9124 33.7001 31.3143C34.3837 30.7313 34.9133 30.0745 35.284 29.3433C35.6543 28.6131 35.8425 27.8697 35.8425 27.1155V26.8655H35.5925H32.3151H32.0651V27.1155C32.0651 27.6109 31.9127 28.0749 31.5993 28.513C31.2728 28.953 30.8232 29.314 30.2416 29.5928C29.655 29.8684 28.9664 30.0101 28.1696 30.0101C27.3128 30.0101 26.6115 29.8558 26.0544 29.561C25.4963 29.2656 25.0856 28.8493 24.8145 28.309L24.8146 28.309L24.8117 28.3036C24.5274 27.7702 24.3805 27.1318 24.3805 26.38V25.0485H27.3724C28.701 25.0485 29.91 24.9057 30.9974 24.6172C32.0847 24.3288 33.0232 23.9003 33.8079 23.3278C34.5963 22.765 35.202 22.0531 35.6219 21.1945C36.0432 20.3452 36.25 19.3684 36.25 18.2705C36.25 17.125 35.9735 16.0813 35.4177 15.1454L35.4178 15.1454L35.4157 15.142C34.8481 14.2198 34.0589 13.4854 33.0547 12.9388L33.0536 12.9382C32.0313 12.3884 30.8496 12.1176 29.516 12.1176C28.4469 12.1176 27.4785 12.3069 26.6153 12.6909L26.6138 12.6916C25.7532 13.0816 25.0092 13.5681 24.3848 14.1528L24.3846 14.1529C24.2037 14.3227 24.033 14.4948 23.8725 14.6693ZM26.841 22.158H24.3805V18.3879C24.4817 18.187 24.6074 17.9822 24.7583 17.7733L24.7583 17.7733L24.7601 17.7708C25.1852 17.1669 25.7646 16.651 26.505 16.2254C27.2299 15.8086 28.0716 15.5966 29.0377 15.5966C29.8096 15.5966 30.4452 15.7378 30.9551 16.0073C31.4582 16.2918 31.8291 16.6682 32.0763 17.1367C32.3276 17.613 32.4549 18.1426 32.4549 18.7302C32.4549 19.3072 32.3329 19.7961 32.0982 20.2058L32.0968 20.2083C31.8596 20.6335 31.5132 20.9896 31.0499 21.2759C30.5851 21.5631 30.0006 21.781 29.2896 21.9238L29.2896 21.9238L29.2857 21.9247C28.5746 22.0794 27.7603 22.158 26.841 22.158ZM15.9623 29.4034C15.1904 29.4034 14.5548 29.2622 14.0449 28.9927C13.5418 28.7082 13.1709 28.3318 12.9237 27.8633C12.6724 27.387 12.5451 26.8574 12.5451 26.2698C12.5451 25.6928 12.6671 25.2039 12.9018 24.7942L12.9018 24.7942L12.9032 24.7917C13.1404 24.3665 13.4868 24.0104 13.9501 23.7241C14.4149 23.4369 14.9994 23.219 15.7104 23.0762L15.7104 23.0762L15.7143 23.0753C16.4254 22.9206 17.2397 22.842 18.159 22.842H20.6031V26.3432C20.6031 26.442 20.6044 26.5399 20.6071 26.6367C20.508 26.8296 20.3865 27.0263 20.2417 27.2267L20.2417 27.2267L20.2399 27.2292C19.8148 27.8331 19.2354 28.349 18.495 28.7746C17.7701 29.1914 16.9284 29.4034 15.9623 29.4034Z" fill="white" stroke="white" stroke-width="0.5"/>
</svg>
